<?xml version="1.0" encoding="UTF-8"?>
<!--Generator: Apple Native CoreSVG 232.5-->
<!DOCTYPE svg
PUBLIC "-//W3C//DTD SVG 1.1//EN"
       "http://www.w3.org/Graphics/SVG/1.1/DTD/svg11.dtd">
<svg version="1.1" xmlns="http://www.w3.org/2000/svg" xmlns:xlink="http://www.w3.org/1999/xlink" width="3300" height="2200">
 <!--glyph: "uni101C38.medium", point size: 100.0, font version: "19.0d8e1", template writer version: "128"-->
 <style>.multicolor-0:tintColor {}
.multicolor-1:tintColor {}

.hierarchical-0:secondary {}
.hierarchical-1:primary {}

.SFSymbolsPreview007AFF {fill:#007AFF;opacity:1.0}
</style>
 <g id="Notes">
  <rect height="2200" id="artboard" style="fill:white;opacity:1" width="3300" x="0" y="0"/>
  <line style="fill:none;stroke:black;opacity:1;stroke-width:0.5;" x1="263" x2="3036" y1="292" y2="292"/>
  <text style="stroke:none;fill:black;font-family:sans-serif;font-size:13;font-weight:bold;" transform="matrix(1 0 0 1 263 322)">Weight/Scale Variations</text>
  <text style="stroke:none;fill:black;font-family:sans-serif;font-size:13;text-anchor:middle;" transform="matrix(1 0 0 1 559.711 322)">Ultralight</text>
  <text style="stroke:none;fill:black;font-family:sans-serif;font-size:13;text-anchor:middle;" transform="matrix(1 0 0 1 856.422 322)">Thin</text>
  <text style="stroke:none;fill:black;font-family:sans-serif;font-size:13;text-anchor:middle;" transform="matrix(1 0 0 1 1153.13 322)">Light</text>
  <text style="stroke:none;fill:black;font-family:sans-serif;font-size:13;text-anchor:middle;" transform="matrix(1 0 0 1 1449.84 322)">Regular</text>
  <text style="stroke:none;fill:black;font-family:sans-serif;font-size:13;text-anchor:middle;" transform="matrix(1 0 0 1 1746.56 322)">Medium</text>
  <text style="stroke:none;fill:black;font-family:sans-serif;font-size:13;text-anchor:middle;" transform="matrix(1 0 0 1 2043.27 322)">Semibold</text>
  <text style="stroke:none;fill:black;font-family:sans-serif;font-size:13;text-anchor:middle;" transform="matrix(1 0 0 1 2339.98 322)">Bold</text>
  <text style="stroke:none;fill:black;font-family:sans-serif;font-size:13;text-anchor:middle;" transform="matrix(1 0 0 1 2636.69 322)">Heavy</text>
  <text style="stroke:none;fill:black;font-family:sans-serif;font-size:13;text-anchor:middle;" transform="matrix(1 0 0 1 2933.4 322)">Black</text>
  <line style="fill:none;stroke:black;opacity:1;stroke-width:0.5;" x1="263" x2="3036" y1="1903" y2="1903"/>
  <g transform="matrix(0.2 0 0 0.2 263 1933)">
   <path d="m46.2402 4.15039c21.5332 0 39.4531-17.8711 39.4531-39.4043s-17.9688-39.4043-39.502-39.4043c-21.4844 0-39.3555 17.8711-39.3555 39.4043s17.9199 39.4043 39.4043 39.4043Zm0-7.42188c-17.7246 0-31.8848-14.209-31.8848-31.9824s14.1113-31.9824 31.8359-31.9824c17.7734 0 32.0312 14.209 32.0312 31.9824s-14.209 31.9824-31.9824 31.9824Zm-17.9688-31.9824c0 2.14844 1.51367 3.61328 3.75977 3.61328h10.498v10.5957c0 2.19727 1.46484 3.71094 3.61328 3.71094 2.24609 0 3.71094-1.51367 3.71094-3.71094v-10.5957h10.5957c2.19727 0 3.71094-1.46484 3.71094-3.61328 0-2.19727-1.51367-3.71094-3.71094-3.71094h-10.5957v-10.5469c0-2.24609-1.46484-3.75977-3.71094-3.75977-2.14844 0-3.61328 1.51367-3.61328 3.75977v10.5469h-10.498c-2.24609 0-3.75977 1.51367-3.75977 3.71094Z"/>
  </g>
  <g transform="matrix(0.2 0 0 0.2 281.506 1933)">
   <path d="m58.5449 14.5508c27.2461 0 49.8047-22.6074 49.8047-49.8047 0-27.2461-22.6074-49.8047-49.8535-49.8047-27.1973 0-49.7559 22.5586-49.7559 49.8047 0 27.1973 22.6074 49.8047 49.8047 49.8047Zm0-8.30078c-23.0469 0-41.4551-18.457-41.4551-41.5039s18.3594-41.5039 41.4062-41.5039 41.5527 18.457 41.5527 41.5039-18.457 41.5039-41.5039 41.5039Zm-22.6562-41.5039c0 2.39258 1.66016 4.00391 4.15039 4.00391h14.3555v14.4043c0 2.44141 1.66016 4.15039 4.05273 4.15039 2.44141 0 4.15039-1.66016 4.15039-4.15039v-14.4043h14.4043c2.44141 0 4.15039-1.61133 4.15039-4.00391 0-2.44141-1.70898-4.15039-4.15039-4.15039h-14.4043v-14.3555c0-2.49023-1.70898-4.19922-4.15039-4.19922-2.39258 0-4.05273 1.70898-4.05273 4.19922v14.3555h-14.3555c-2.49023 0-4.15039 1.70898-4.15039 4.15039Z"/>
  </g>
  <g transform="matrix(0.2 0 0 0.2 304.924 1933)">
   <path d="m74.8535 28.3203c34.8145 0 63.623-28.8086 63.623-63.5742 0-34.8145-28.8574-63.623-63.6719-63.623-34.7656 0-63.5254 28.8086-63.5254 63.623 0 34.7656 28.8086 63.5742 63.5742 63.5742Zm0-9.08203c-30.1758 0-54.4434-24.3164-54.4434-54.4922 0-30.2246 24.2188-54.4922 54.3945-54.4922 30.2246 0 54.541 24.2676 54.541 54.4922 0 30.1758-24.2676 54.4922-54.4922 54.4922Zm-28.8574-54.4922c0 2.58789 1.85547 4.39453 4.58984 4.39453h19.7266v19.7754c0 2.68555 1.85547 4.58984 4.44336 4.58984 2.68555 0 4.54102-1.85547 4.54102-4.58984v-19.7754h19.7754c2.68555 0 4.58984-1.80664 4.58984-4.39453 0-2.73438-1.85547-4.58984-4.58984-4.58984h-19.7754v-19.7266c0-2.73438-1.85547-4.63867-4.54102-4.63867-2.58789 0-4.44336 1.9043-4.44336 4.63867v19.7266h-19.7266c-2.73438 0-4.58984 1.85547-4.58984 4.58984Z"/>
  </g>
  <text style="stroke:none;fill:black;font-family:sans-serif;font-size:13;font-weight:bold;" transform="matrix(1 0 0 1 263 1953)">Design Variations</text>
  <text style="stroke:none;fill:black;font-family:sans-serif;font-size:13;" transform="matrix(1 0 0 1 263 1971)">Symbols are supported in up to nine weights and three scales.</text>
  <text style="stroke:none;fill:black;font-family:sans-serif;font-size:13;" transform="matrix(1 0 0 1 263 1989)">For optimal layout with text and other symbols, vertically align</text>
  <text style="stroke:none;fill:black;font-family:sans-serif;font-size:13;" transform="matrix(1 0 0 1 263 2007)">symbols with the adjacent text.</text>
  <line style="fill:none;stroke:#00AEEF;stroke-width:0.5;opacity:1.0;" x1="776" x2="776" y1="1919" y2="1933"/>
  <g transform="matrix(0.2 0 0 0.2 776 1933)">
   <path d="m16.5527 0.78125c2.58789 0 3.85742-0.976562 4.78516-3.71094l6.29883-17.2363h28.8086l6.29883 17.2363c0.927734 2.73438 2.19727 3.71094 4.73633 3.71094 2.58789 0 4.24805-1.5625 4.24805-4.00391 0-0.830078-0.146484-1.61133-0.537109-2.63672l-22.9004-60.9863c-1.12305-2.97852-3.125-4.49219-6.25-4.49219-3.02734 0-5.07812 1.46484-6.15234 4.44336l-22.9004 61.084c-0.390625 1.02539-0.537109 1.80664-0.537109 2.63672 0 2.44141 1.5625 3.95508 4.10156 3.95508Zm13.4766-28.3691 11.8652-32.8613h0.244141l11.8652 32.8613Z"/>
  </g>
  <line style="fill:none;stroke:#00AEEF;stroke-width:0.5;opacity:1.0;" x1="792.836" x2="792.836" y1="1919" y2="1933"/>
  <text style="stroke:none;fill:black;font-family:sans-serif;font-size:13;font-weight:bold;" transform="matrix(1 0 0 1 776 1953)">Margins</text>
  <text style="stroke:none;fill:black;font-family:sans-serif;font-size:13;" transform="matrix(1 0 0 1 776 1971)">Leading and trailing margins on the left and right side of each symbol</text>
  <text style="stroke:none;fill:black;font-family:sans-serif;font-size:13;" transform="matrix(1 0 0 1 776 1989)">can be adjusted by modifying the x-location of the margin guidelines.</text>
  <text style="stroke:none;fill:black;font-family:sans-serif;font-size:13;" transform="matrix(1 0 0 1 776 2007)">Modifications are automatically applied proportionally to all</text>
  <text style="stroke:none;fill:black;font-family:sans-serif;font-size:13;" transform="matrix(1 0 0 1 776 2025)">scales and weights.</text>
  <g transform="matrix(0.2 0 0 0.2 1289 1933)">
   <path d="m14.209 9.32617 8.49609 8.54492c4.29688 4.3457 9.22852 4.05273 13.8672-1.07422l53.4668-58.9355-4.83398-4.88281-53.0762 58.3984c-1.75781 2.00195-3.41797 2.49023-5.76172 0.146484l-5.85938-5.81055c-2.34375-2.29492-1.80664-4.00391 0.195312-5.81055l57.373-54.0039-4.88281-4.83398-57.959 54.4434c-4.93164 4.58984-5.32227 9.47266-1.02539 13.8184Zm32.0801-90.9668c-2.09961 2.05078-2.24609 4.93164-1.07422 6.88477 1.17188 1.80664 3.4668 2.97852 6.68945 2.14844 7.32422-1.70898 14.9414-2.00195 22.0703 2.68555l-2.92969 7.27539c-1.70898 4.15039-0.830078 7.08008 1.85547 9.81445l11.4746 11.5723c2.44141 2.44141 4.49219 2.53906 7.32422 2.05078l5.32227-0.976562 3.32031 3.36914-0.195312 2.7832c-0.195312 2.49023 0.439453 4.39453 2.88086 6.78711l3.80859 3.71094c2.39258 2.39258 5.46875 2.53906 7.8125 0.195312l14.5508-14.5996c2.34375-2.34375 2.24609-5.32227-0.146484-7.71484l-3.85742-3.80859c-2.39258-2.39258-4.24805-3.17383-6.64062-2.97852l-2.88086 0.244141-3.22266-3.17383 1.2207-5.61523c0.634766-2.83203-0.146484-5.0293-3.07617-7.95898l-10.9863-10.9375c-16.6992-16.6016-38.8672-16.2109-53.3203-1.75781Zm7.4707 1.85547c12.1582-8.88672 28.6133-7.37305 39.7461 3.75977l12.1582 12.0605c1.17188 1.17188 1.36719 2.09961 1.02539 3.80859l-1.61133 7.42188 7.51953 7.42188 4.93164-0.292969c1.26953-0.0488281 1.66016 0.0488281 2.63672 1.02539l2.88086 2.88086-12.207 12.207-2.88086-2.88086c-0.976562-0.976562-1.12305-1.36719-1.07422-2.68555l0.341797-4.88281-7.4707-7.42188-7.61719 1.26953c-1.61133 0.341797-2.34375 0.195312-3.56445-0.976562l-10.0098-10.0098c-1.26953-1.17188-1.41602-2.00195-0.634766-3.85742l4.39453-10.4492c-7.8125-7.27539-17.9688-10.4004-28.125-7.42188-0.78125 0.195312-1.07422-0.439453-0.439453-0.976562Z"/>
  </g>
  <text style="stroke:none;fill:black;font-family:sans-serif;font-size:13;font-weight:bold;" transform="matrix(1 0 0 1 1289 1953)">Exporting</text>
  <text style="stroke:none;fill:black;font-family:sans-serif;font-size:13;" transform="matrix(1 0 0 1 1289 1971)">Symbols should be outlined when exporting to ensure the</text>
  <text style="stroke:none;fill:black;font-family:sans-serif;font-size:13;" transform="matrix(1 0 0 1 1289 1989)">design is preserved when submitting to Xcode.</text>
  <text id="template-version" style="stroke:none;fill:black;font-family:sans-serif;font-size:13;text-anchor:end;" transform="matrix(1 0 0 1 3036 1933)">Template v.3.0</text>
  <text style="stroke:none;fill:black;font-family:sans-serif;font-size:13;text-anchor:end;" transform="matrix(1 0 0 1 3036 1951)">Requires Xcode 13 or greater</text>
  <text id="descriptive-name" style="stroke:none;fill:black;font-family:sans-serif;font-size:13;text-anchor:end;" transform="matrix(1 0 0 1 3036 1969)">Generated from book.and.wrench.fill</text>
  <text style="stroke:none;fill:black;font-family:sans-serif;font-size:13;text-anchor:end;" transform="matrix(1 0 0 1 3036 1987)">Typeset at 100.0 points</text>
  <text style="stroke:none;fill:black;font-family:sans-serif;font-size:13;" transform="matrix(1 0 0 1 263 726)">Small</text>
  <text style="stroke:none;fill:black;font-family:sans-serif;font-size:13;" transform="matrix(1 0 0 1 263 1156)">Medium</text>
  <text style="stroke:none;fill:black;font-family:sans-serif;font-size:13;" transform="matrix(1 0 0 1 263 1586)">Large</text>
 </g>
 <g id="Guides">
  <g id="H-reference" style="fill:#27AAE1;stroke:none;" transform="matrix(1 0 0 1 339 696)">
   <path d="M0.993654 0L3.63775 0L29.3281-67.1323L30.0303-67.1323L30.0303-70.459L28.1226-70.459ZM11.6885-24.4799L46.9815-24.4799L46.2315-26.7285L12.4385-26.7285ZM55.1196 0L57.7637 0L30.6382-70.459L29.4326-70.459L29.4326-67.1323Z"/>
  </g>
  <line id="Baseline-S" style="fill:none;stroke:#27AAE1;opacity:1;stroke-width:0.5;" x1="263" x2="3036" y1="696" y2="696"/>
  <line id="Capline-S" style="fill:none;stroke:#27AAE1;opacity:1;stroke-width:0.5;" x1="263" x2="3036" y1="625.541" y2="625.541"/>
  <g id="H-reference" style="fill:#27AAE1;stroke:none;" transform="matrix(1 0 0 1 339 1126)">
   <path d="M0.993654 0L3.63775 0L29.3281-67.1323L30.0303-67.1323L30.0303-70.459L28.1226-70.459ZM11.6885-24.4799L46.9815-24.4799L46.2315-26.7285L12.4385-26.7285ZM55.1196 0L57.7637 0L30.6382-70.459L29.4326-70.459L29.4326-67.1323Z"/>
  </g>
  <line id="Baseline-M" style="fill:none;stroke:#27AAE1;opacity:1;stroke-width:0.5;" x1="263" x2="3036" y1="1126" y2="1126"/>
  <line id="Capline-M" style="fill:none;stroke:#27AAE1;opacity:1;stroke-width:0.5;" x1="263" x2="3036" y1="1055.54" y2="1055.54"/>
  <g id="H-reference" style="fill:#27AAE1;stroke:none;" transform="matrix(1 0 0 1 339 1556)">
   <path d="M0.993654 0L3.63775 0L29.3281-67.1323L30.0303-67.1323L30.0303-70.459L28.1226-70.459ZM11.6885-24.4799L46.9815-24.4799L46.2315-26.7285L12.4385-26.7285ZM55.1196 0L57.7637 0L30.6382-70.459L29.4326-70.459L29.4326-67.1323Z"/>
  </g>
  <line id="Baseline-L" style="fill:none;stroke:#27AAE1;opacity:1;stroke-width:0.5;" x1="263" x2="3036" y1="1556" y2="1556"/>
  <line id="Capline-L" style="fill:none;stroke:#27AAE1;opacity:1;stroke-width:0.5;" x1="263" x2="3036" y1="1485.54" y2="1485.54"/>
  <line id="left-margin-Ultralight-S" style="fill:none;stroke:#00AEEF;stroke-width:0.5;opacity:1.0;" x1="509.344" x2="509.344" y1="600.785" y2="720.121"/>
  <line id="right-margin-Ultralight-S" style="fill:none;stroke:#00AEEF;stroke-width:0.5;opacity:1.0;" x1="610.078" x2="610.078" y1="600.785" y2="720.121"/>
  <line id="left-margin-Regular-S" style="fill:none;stroke:#00AEEF;stroke-width:0.5;opacity:1.0;" x1="1395.25" x2="1395.25" y1="600.785" y2="720.121"/>
  <line id="right-margin-Regular-S" style="fill:none;stroke:#00AEEF;stroke-width:0.5;opacity:1.0;" x1="1504.43" x2="1504.43" y1="600.785" y2="720.121"/>
  <line id="left-margin-Black-S" style="fill:none;stroke:#00AEEF;stroke-width:0.5;opacity:1.0;" x1="2873.98" x2="2873.98" y1="600.785" y2="720.121"/>
  <line id="right-margin-Black-S" style="fill:none;stroke:#00AEEF;stroke-width:0.5;opacity:1.0;" x1="2992.82" x2="2992.82" y1="600.785" y2="720.121"/>
 </g>
 <g id="Symbols">
  <g id="Black-S" transform="matrix(1 0 0 1 2873.98 696)">
   <path class="multicolor-0:tintColor hierarchical-0:secondary SFSymbolsPreview007AFF" d="M16.6016 2.58789C19.3359 2.58789 20.6055 1.75781 23.7793 0.0488281C27.832-2.14844 32.373-3.32031 36.9141-3.32031C41.7969-3.32031 46.6309-1.85547 50.7812 1.26953C45.2148-6.39648 46.7285-16.9434 55.7617-23.584L55.7617-60.0586C55.7617-61.3281 55.5176-62.1582 54.6875-63.4766C51.0254-69.2383 42.7246-73.0469 33.3984-73.0469C24.1211-73.0469 14.6484-68.5547 11.2793-62.7441C10.1562-60.8398 9.76562-59.668 9.76562-56.7383L9.76562-4.39453C9.76562 0.244141 12.3047 2.58789 16.6016 2.58789ZM63.0859-28.8086C66.7969-31.3477 70.459-33.8379 72.1191-35.498C75.0488-38.4277 71.582-48.877 80.6152-57.5195C88.3789-64.7949 100.293-65.4297 108.887-59.6191C108.643-60.7422 108.252-61.6211 107.568-62.7441C104.199-68.5547 94.7266-73.0469 85.4492-73.0469C76.123-73.0469 67.8223-69.2383 64.1602-63.4766C63.3301-62.1582 63.0859-61.3281 63.0859-60.0586ZM83.0566-3.27148C87.2559-3.125 91.3574-1.95312 95.0684 0.0488281C98.2422 1.75781 99.5117 2.58789 102.246 2.58789C106.543 2.58789 109.082 0.244141 109.082-4.39453L109.082-21.4355C99.6582-16.4551 94.8242-18.457 93.8477-17.4805C89.5508-13.1836 86.3281-8.05664 83.0566-3.27148Z"/>
   <path class="multicolor-1:tintColor hierarchical-1:primary SFSymbolsPreview007AFF" d="M57.373-0.830078C62.0605 3.85742 69.043 3.95508 73.6816-1.36719C78.125-6.49414 82.7148-15.332 89.3555-21.9727C91.9922-24.6094 94.7266-25.6348 99.2188-25.6348C109.082-25.6348 113.721-34.5215 111.719-42.334L99.5605-38.5742L99.0234-40.5273C98.6328-42.041 99.3652-43.3105 100.879-43.75L110.693-46.7285C110.254-48.3398 109.326-50.6836 107.666-52.3926C101.562-58.5938 91.2598-58.8379 85.0098-52.9297C75.9766-44.2871 81.9336-36.3281 77.9785-32.373C71.875-26.2695 62.9395-21.6309 57.8613-17.0898C52.5879-12.4512 52.6855-5.46875 57.373-0.830078ZM65.4785-6.54297C64.209-6.54297 63.1348-7.61719 63.1348-8.88672C63.1348-10.1562 64.209-11.2305 65.4785-11.2305C66.748-11.2305 67.7734-10.1562 67.7734-8.88672C67.7734-7.61719 66.748-6.54297 65.4785-6.54297Z"/>
  </g>
  <g id="Regular-S" transform="matrix(1 0 0 1 1395.25 696)">
   <path class="multicolor-0:tintColor hierarchical-0:secondary SFSymbolsPreview007AFF" d="M13.1836 0.488281C14.1602 0.488281 15.1367 0.195312 15.9668-0.537109C20.8008-4.58984 27.0508-6.73828 33.252-6.73828C38.8184-6.73828 44.4824-5.12695 49.5605-0.830078C46.3867-6.34766 47.0215-13.0859 51.7578-18.0176L51.7578-59.7656C51.7578-60.8398 51.709-60.9863 50.8789-62.1582C47.3145-67.627 39.7949-71.0449 31.4453-71.0449C22.9004-71.0449 14.1602-66.9922 10.2051-60.1074C9.76562-59.3262 9.76562-58.7891 9.76562-57.2266L9.76562-2.68555C9.76562-0.732422 11.0352 0.488281 13.1836 0.488281ZM57.4219-22.6562C62.1094-26.0254 67.5781-29.2969 70.9961-32.7148C74.4141-36.084 70.2148-45.3125 78.6133-53.3203C84.1797-58.5938 92.4805-59.8633 99.4141-57.0312C99.4141-58.7891 99.4141-59.3262 98.9746-60.1074C95.0195-66.9922 86.2793-71.0449 77.7344-71.0449C69.3848-71.0449 61.8652-67.627 58.3008-62.1582C57.4707-60.9863 57.4219-60.8398 57.4219-59.7656ZM79.4434-6.54297C84.4238-5.81055 89.3066-3.75977 93.2129-0.537109C94.043 0.195312 95.0195 0.488281 95.9961 0.488281C98.1445 0.488281 99.4141-0.732422 99.4141-2.68555L99.4141-20.459C94.1895-18.2129 90.2832-19.7754 88.3789-17.8711C85.6445-15.1367 82.3242-10.5469 79.4434-6.54297Z"/>
   <path class="multicolor-1:tintColor hierarchical-1:primary SFSymbolsPreview007AFF" d="M56.1035-1.61133C59.9121 2.19727 65.5762 2.39258 69.2871-2.09961C71.6797-5.0293 78.8086-16.3574 84.4238-22.0215C87.8906-25.4395 92.334-25.6348 94.3848-25.6348C103.467-25.6348 107.227-33.0078 105.908-38.2324L94.2871-35.2051L93.0664-39.6484C92.627-41.3574 93.4082-42.7734 95.3125-43.2617L103.955-45.5566C103.662-46.3867 102.881-47.6074 101.855-48.6816C96.582-54.1016 87.8418-54.1504 82.5684-49.1699C75.0488-41.9922 80.7129-34.375 75.9766-29.5898C69.6289-23.291 61.1816-18.8965 56.5918-14.8438C52.2461-10.8887 52.2949-5.41992 56.1035-1.61133ZM62.5977-5.27344C60.9863-5.27344 59.7656-6.5918 59.7656-8.1543C59.7656-9.7168 60.9863-10.9863 62.5977-10.9863C64.209-10.9863 65.4785-9.7168 65.4785-8.1543C65.4785-6.5918 64.209-5.27344 62.5977-5.27344Z"/>
  </g>
  <g id="Ultralight-S" transform="matrix(1 0 0 1 509.344 696)">
   <path class="multicolor-0:tintColor hierarchical-0:secondary SFSymbolsPreview007AFF" d="M11.0039-3.23532C11.6626-3.23532 11.958-3.48288 12.334-3.85202C16.8501-8.35886 23.9629-10.3257 31.1177-10.3257C37.4561-10.3257 42.3482-7.94236 45.5645-5.5527C43.5713-10.5254 45.75-15.311 49.3057-18.0176L49.3057-58.0855C49.3057-58.8872 49.166-59.2608 48.6992-59.7969C44.1358-64.9024 37.6153-67.2305 31.0366-67.2305C22.9458-67.2305 14.1602-63.9951 10.2505-57.8369C9.85644-57.2373 9.76562-56.9273 9.76562-56.1367L9.76562-4.54735C9.76562-3.77488 10.2632-3.23532 11.0039-3.23532ZM51.4278-19.75C56.3423-23.437 63.3096-27.5713 67.7266-32.0791C72.0073-36.311 65.6285-42.9512 74.7989-51.7764C79.1392-55.9146 85.5328-56.9116 90.9678-54.8516C90.9678-56.9273 90.877-57.2373 90.483-57.8369C86.5733-63.9951 77.7877-67.2305 69.6968-67.2305C63.1182-67.2305 56.5523-64.9024 52.0342-59.7969C51.5674-59.2608 51.4278-58.8872 51.4278-58.0855ZM70.0889-10.312C77.0674-10.2153 83.9483-8.20993 88.3995-3.85202C88.73-3.48288 89.0708-3.23532 89.7295-3.23532C90.4703-3.23532 90.9678-3.77488 90.9678-4.54735L90.9678-24.8183C86.1973-23.2988 83.6534-26.4506 77.6168-20.414C75.8814-18.6787 72.8336-14.3159 70.0889-10.312Z"/>
   <path class="multicolor-1:tintColor hierarchical-1:primary SFSymbolsPreview007AFF" d="M50.3365-3.88182C53.691-0.527322 58.4468-0.468239 61.8853-4.32469C65.7764-8.70749 70.8619-17.9922 77.2945-24.3828C79.4444-26.5747 83.252-27.8144 87.0284-27.8144C95.9742-27.8144 98.3262-34.5517 98.2339-38.5957L87.6119-35.7954L85.9825-41.374C85.4522-43.1284 85.8248-44.8623 88.2286-45.4868L95.7359-47.5093C95.3521-47.9761 94.9341-48.5156 94.3629-49.0903C89.6797-53.8745 81.6661-54.105 76.8921-49.5786C69.9629-42.855 75.7178-35.7373 69.9825-29.9531C64.4522-24.3809 55.2784-19.2598 50.8702-15.3433C46.9331-11.9785 46.982-7.1909 50.3365-3.88182ZM56.0586-7.08983C54.6744-7.08983 53.5445-8.18114 53.5445-9.562C53.5445-10.852 54.6744-11.8945 56.0586-11.8945C57.3975-11.8945 58.44-10.852 58.44-9.562C58.44-8.18114 57.3975-7.08983 56.0586-7.08983Z"/>
  </g>
 </g>
</svg>
